/* XPM */
static char * arrow_xpm[] = {
"22 22 2 1",
" 	c None",
".	c #FF0D0D",
"                      ",
"                      ",
"                      ",
"                      ",
"                      ",
"                 .    ",
"                ..    ",
"          .    ....   ",
"         ...  .....   ",
"         ...........  ",
"        ............  ",
"        ...........   ",
"       ..........     ",
"       .........      ",
"      .........       ",
"      ..........      ",
"     ...........      ",
"                      ",
"                      ",
"                      ",
"                      ",
"                      "};
