/* XPM */
static char * form_subnet_xpm[] = {
"50 50 17 1",
" 	c None",
".	c #8E8B8B",
"+	c #000000",
"@	c #363636",
"#	c #474747",
"$	c #B3B3B3",
"%	c #BCBCBC",
"&	c #4E4E4E",
"*	c #1F1F1F",
"=	c #151515",
"-	c #9F9D9D",
";	c #909090",
">	c #969494",
",	c #7B7B7B",
"'	c #AEACAC",
")	c #8D8D8D",
"!	c #646464",
"                    ..........                    ",
"                    ..........                    ",
"                    ..........                    ",
"                    ..........                    ",
"                    ..........                    ",
"                    ..........                    ",
"                    ..........                    ",
"                    ..........                    ",
"                    ..........                    ",
"               +++++..........                    ",
"               +++++..........                    ",
"               +++++++........                    ",
"               ++++++++.......                    ",
"               +++++++++......                    ",
"               +++++++++......                    ",
"               +++++++++++.                       ",
"               +++++++++++++                      ",
"               +++++++++++++                      ",
"               +++++++++++++                      ",
"               +++++++++++++++                    ",
"...............+++++++++++++++++   ...............",
"...............+++++++++++++++++   ...............",
"...............+++++++++++++++++   ...............",
"...............+++++++++++++++++..................",
"...............++++++++++++@@+++..................",
"...............++++++++++++#$%&*..................",
"...............++++++++++++=-.....................",
"...............+++++++++++++=      ...............",
"...............+++++++++++++++     ...............",
"...............++++++ ++++++++     ...............",
"               +++++   ++++++++                   ",
"               +++++   ;+++++++                   ",
"                       >,++++++++                 ",
"                       ..+++++++++                ",
"                       >'.++++++++                ",
"                    ......+++++++++               ",
"                    ......)+++++++++              ",
"                    .......+++++++++              ",
"                    .......+++++++++              ",
"                    ........++++++++              ",
"                    ........+!++++++              ",
"                    ..........                    ",
"                    ..........                    ",
"                    ..........                    ",
"                    ..........                    ",
"                    ..........                    ",
"                    ..........                    ",
"                    ..........                    ",
"                    ..........                    ",
"                    ..........                    "};
