/* XPM */
static char *mi[]={
"50 50 3 1",
". c None",
"# c #000000",
"a c #0058c0",
"....................##########....................",
"....................##########....................",
"....................##########....................",
"....................##########....................",
"....................##########....................",
"....................##########....................",
"....................##########....................",
"....................##########....................",
"....................##########....................",
"....................##########....................",
"....................##########....................",
"....................##########....................",
"....................##########....................",
"....................##########....................",
"....................##########....................",
".......................aaaa.......................",
".......................aaaa.......................",
".......................aaaa.......................",
".......................aaaa.......................",
".......................aaaa.......................",
"###############........aaaa........###############",
"###############......aaaaaaaa......###############",
"###############......aaaaaaaa......###############",
"###############aaaaaaaaaaaaaaaaaaaa###############",
"###############aaaaaaaaaaaaaaaaaaaa###############",
"###############aaaaaaaaaaaaaaaaaaaa###############",
"###############aaaaaaaaaaaaaaaaaaaa###############",
"###############......aaaaaaaa......###############",
"###############......aaaaaaaa......###############",
"###############........aaaa........###############",
".......................aaaa.......................",
".......................aaaa.......................",
".......................aaaa.......................",
".......................aaaa.......................",
".......................aaaa.......................",
"....................##########....................",
"....................##########....................",
"....................##########....................",
"....................##########....................",
"....................##########....................",
"....................##########....................",
"....................##########....................",
"....................##########....................",
"....................##########....................",
"....................##########....................",
"....................##########....................",
"....................##########....................",
"....................##########....................",
"....................##########....................",
"....................##########...................."};
