/* XPM */
static char *next[]={
"32 32 2 1",
". c None",
"# c #000000",
"...##........................###",
"...####......................###",
"...#####.....................###",
"...#######...................###",
"...#########.................###",
"...##########................###",
"...############..............###",
"...##############............###",
"...###############...........###",
"...#################.........###",
"...###################.......###",
"...####################......###",
"...######################....###",
"...########################..###",
"...#########################.###",
"...#############################",
"...#############################",
"...#########################.###",
"...########################..###",
"...######################....###",
"...####################......###",
"...###################.......###",
"...#################.........###",
"...###############...........###",
"...##############............###",
"...############..............###",
"...##########................###",
"...#########.................###",
"...#######...................###",
"...#####.....................###",
"...####......................###",
"...##........................###"};
