/* XPM */
static char* zoomout_xpm[] = { 
"22 22 121 2",
"Qt c None",
".# c #000000",
".T c #00446a",
".H c #00486a",
".V c #00508b",
".J c #005d9c",
".R c #083c52",
".S c #084062",
".U c #085083",
".I c #08558b",
".X c #08598b",
".W c #085994",
".L c #086da4",
".G c #10486a",
"#J c #105083",
".Y c #10618b",
".M c #106d9c",
".K c #1075ac",
"#K c #1828bd",
"#0 c #1828cd",
"#U c #1830c5",
"#1 c #1840b4",
"#2 c #1844bd",
"#S c #1879d5",
"#X c #1879de",
"#Q c #187dd5",
"#N c #187dde",
"#Z c #202ccd",
"#O c #208de6",
"#T c #2091e6",
".5 c #209dbd",
".4 c #2995b4",
".6 c #29a5c5",
"#M c #313c73",
"#d c #3189a4",
".3 c #3191ac",
"#e c #3195b4",
".7 c #31a5c5",
".z c #31bee6",
"#W c #393c94",
"#n c #39859c",
"#f c #399dbd",
"#D c #41386a",
"#m c #41859c",
"#c c #418da4",
".8 c #41aecd",
"#C c #4a3c6a",
"#V c #4a3c73",
"#L c #4a406a",
"#R c #4a50ac",
"#Y c #4a59a4",
"#l c #4a8594",
"#o c #4a91a4",
".2 c #4a95ac",
"#g c #4aa1bd",
".y c #4abade",
"#B c #52445a",
"#s c #525052",
"#P c #525db4",
"#b c #528da4",
"#v c #5a8594",
"#w c #5a899c",
".9 c #5ab2cd",
".x c #5ab6d5",
".q c #5ac6e6",
".r c #5aceee",
"#x c #6295a4",
".1 c #6299a4",
"#p c #629db4",
"#u c #6a899c",
"#k c #6a8d9c",
".Q c #6aa1b4",
".F c #6aaabd",
"#h c #6aaec5",
"#F c #738d94",
"#a c #7395a4",
"#E c #7b8d9c",
"#t c #7b919c",
"#j c #7b959c",
"#G c #7b99a4",
"#y c #7b9dac",
"#q c #7baab4",
".p c #7bc6de",
".A c #7bd6f6",
".w c #83bacd",
"#. c #83c2d5",
".k c #83d6f6",
".l c #83daf6",
"#A c #8b8183",
".0 c #8ba5ac",
".P c #8baab4",
"#i c #8bbacd",
".N c #8bd2ee",
".C c #8bdaf6",
"#z c #94aeb4",
".E c #94b6c5",
".o c #94c6d5",
".s c #94def6",
"#r c #9cbac5",
".j c #9cd6e6",
".v c #a4c2cd",
".B c #a4e2f6",
"#H c #aca1a4",
"## c #accede",
".e c #ace2f6",
".u c #ace6f6",
".f c #ace6ff",
".Z c #b4daee",
".O c #b4deee",
"#I c #bdbabd",
".i c #bddae6",
".g c #bdeaf6",
".t c #bdeaff",
".d c #c5e6f6",
".D c #c5eaff",
".m c #c5eeff",
".a c #d5f2ff",
".h c #def2ff",
".n c #def6ff",
".b c #e6f6ff",
".c c #eefaff",
"QtQtQtQtQtQtQtQtQtQtQtQtQtQtQtQtQtQtQtQtQtQt",
"QtQtQtQtQt.#.#.#.#QtQtQtQtQtQtQtQtQtQtQtQtQt",
"QtQtQt.#.#.a.b.b.c.#.#QtQtQtQtQtQtQtQtQtQtQt",
"QtQt.#.d.e.f.g.a.h.b.b.#QtQtQtQtQtQtQtQtQtQt",
"Qt.#.i.j.k.l.f.m.a.a.a.n.#QtQtQtQtQtQtQtQtQt",
"Qt.#.o.p.q.r.s.m.m.t.u.m.#QtQtQtQtQtQtQtQtQt",
".#.v.w.x.y.z.A.B.f.s.C.s.D.#QtQtQtQtQtQtQtQt",
".#.E.F.G.H.I.J.K.K.L.M.N.O.#QtQtQtQtQtQtQtQt",
".#.P.Q.R.S.T.U.V.W.X.Y.p.Z.#QtQtQtQtQtQtQtQt",
".#.0.1.2.3.4.5.6.7.8.9#.##.#QtQtQtQtQtQtQtQt",
"Qt.##a#b#c#d.3#e#f#g#h#i.#QtQtQtQtQtQtQtQtQt",
"Qt.##j#k#l#m#n#c#o#p#q#r.##sQtQtQtQtQtQtQtQt",
"QtQt.##t#u#v#w#w#x#y#z.##A#B#C#DQtQtQtQtQtQt",
"QtQtQt.#.##E#F#t#G.#.##H#I#J#K#L#DQtQtQtQtQt",
"QtQtQtQtQt.#.#.#.#QtQtQt#M#N#O#K#L#DQtQtQtQt",
"QtQtQtQtQtQtQtQtQtQtQtQtQt#P#Q#O#K#D#DQtQtQt",
"QtQtQtQtQtQtQtQtQtQtQtQtQtQt#R#S#T#U#V#DQtQt",
"QtQtQtQtQtQtQtQtQtQtQtQtQtQtQt#W#X#O#K#D#DQt",
"QtQtQtQtQtQtQtQtQtQtQtQtQtQtQtQt#Y#S#T#U#Z#D",
"QtQtQtQtQtQtQtQtQtQtQtQtQtQtQtQtQt#W#X#O#0#D",
"QtQtQtQtQtQtQtQtQtQtQtQtQtQtQtQtQtQt#Y#1#2Qt",
"QtQtQtQtQtQtQtQtQtQtQtQtQtQtQtQtQtQtQtQtQtQt"};
