/* XPM */
static char *zoomfix[]={
"22 22 100 2",
"Qt c None",
".# c #000000",
".H c #00446a",
".v c #00486a",
".J c #00508b",
".x c #005d9c",
".F c #083c52",
".G c #084062",
".I c #085083",
".w c #08558b",
".L c #08598b",
".K c #085994",
".z c #086da4",
".M c #10618b",
".A c #106d9c",
".y c #1075ac",
"#w c #1828bd",
"#F c #1828cd",
"#z c #1830c5",
"#G c #1840b4",
"#H c #1844bd",
"#x c #1879d5",
"#C c #1879de",
"#u c #187dde",
"#E c #202ccd",
"#v c #208de6",
"#y c #2091e6",
".S c #209dbd",
".R c #2995b4",
".T c #29a5c5",
"#t c #313c73",
".0 c #3189a4",
".Q c #3191ac",
".1 c #3195b4",
".U c #31a5c5",
".s c #31bee6",
"#B c #393c94",
"#. c #39859c",
".2 c #399dbd",
"#k c #41386a",
".9 c #41859c",
".Z c #418da4",
".V c #41aecd",
"#A c #4a3c73",
"#r c #4a406a",
"#D c #4a59a4",
".8 c #4a8594",
"## c #4a91a4",
".3 c #4aa1bd",
".p c #585858",
"#e c #5a8594",
"#f c #5a899c",
".W c #5ab2cd",
".q c #5aceee",
"#g c #6295a4",
"#a c #629db4",
"#d c #6a899c",
".7 c #6a8d9c",
".E c #6aa1b4",
".4 c #6aaec5",
"#m c #738d94",
"#l c #7b8d9c",
"#n c #7b919c",
".6 c #7b959c",
"#o c #7b99a4",
"#h c #7b9dac",
"#b c #7baab4",
".N c #7bc6de",
".X c #83c2d5",
".k c #83d6f6",
".l c #83daf6",
"#j c #8b8183",
".P c #8ba5ac",
".D c #8baab4",
".5 c #8bbacd",
".B c #8bd2ee",
"#i c #94aeb4",
".u c #94b6c5",
".o c #94c6d5",
".t c #94def6",
"#c c #9cbac5",
".j c #9cd6e6",
".r c #a4c2cd",
"#p c #aca1a4",
".Y c #accede",
".e c #ace2f6",
".f c #ace6ff",
".O c #b4daee",
".C c #b4deee",
"#q c #bdbabd",
".i c #bddae6",
".g c #bdeaf6",
".d c #c5e6f6",
".m c #c5eeff",
".a c #d5f2ff",
".h c #def2ff",
".n c #def6ff",
".b c #e6f6ff",
".c c #eefaff",
"#s c #ffffff",
"QtQtQtQtQtQtQtQtQtQtQtQtQtQtQtQtQtQtQtQtQtQt",
"QtQtQtQtQt.#.#.#.#QtQtQtQtQtQtQtQtQtQtQtQtQt",
"QtQtQt.#.#.a.b.b.c.#.#QtQtQtQtQtQtQtQtQtQtQt",
"QtQt.#.d.e.f.g.a.h.b.b.#QtQtQtQtQtQtQtQtQtQt",
"Qt.#.i.j.k.l.f.m.a.a.a.n.#QtQtQtQtQtQtQtQtQt",
"Qt.#.o.p.p.q.p.p.m.p.p.m.p.pQtQtQtQtQtQtQtQt",
".#.r.p.p.p.s.p.p.f.p.p.t.p.p.pQtQtQtQtQtQtQt",
".#.u.p.p.v.w.x.y.y.z.A.B.C.p.pQtQtQtQtQtQtQt",
".#.D.E.F.G.H.I.J.K.L.M.N.O.#QtQtQtQtQtQtQtQt",
".#.P.p.p.Q.R.S.T.U.V.W.X.Y.p.pQtQtQtQtQtQtQt",
"Qt.#.p.p.Z.0.Q.1.2.3.4.5.#.p.pQtQtQtQtQtQtQt",
"Qt.#.6.7.8.9#..Z###a#b#c.#.#QtQtQtQtQtQtQtQt",
"QtQt.p.p#d#e#f#f#g#h#i.##j.p.p#kQtQtQtQtQtQt",
"QtQt.p.p.##l#m#n#o.#.##p#q.p.p#r#kQtQtQtQtQt",
"QtQt#sQtQt.#.#.#.#QtQtQt#t#u#v#w#r#kQtQtQtQt",
"QtQt.p.pQtQtQtQtQtQtQtQtQt.p.p#v#w#k#kQtQtQt",
"QtQt.p.p.pQt.p.pQt.p.pQt.p.p.p#x#y#z#A#kQtQt",
"QtQtQt.p.pQt.p.pQt.p.pQt.p.pQt#B#C#v#w#k#kQt",
"QtQtQtQtQtQtQtQtQtQtQtQtQtQtQtQt#D#x#y#z#E#k",
"QtQtQtQtQtQtQtQtQtQtQtQtQtQtQtQtQt#B#C#v#F#k",
"QtQtQtQtQtQtQtQtQtQtQtQtQtQtQtQtQtQt#D#G#HQt",
"QtQtQtQtQtQtQtQtQtQtQtQtQtQtQtQtQtQtQtQtQtQt"};
